<svg version="1.1" xmlns="http://www.w3.org/2000/svg" xmlns:xlink="http://www.w3.org/1999/xlink" width="482.3" height="361.54" viewBox="0,0,482.3,361.54"><g transform="translate(1.14999,0.77)"><g data-paper-data="{&quot;isPaintingLayer&quot;:true}" fill-rule="nonzero" stroke="none" stroke-width="1" stroke-linecap="butt" stroke-linejoin="miter" stroke-miterlimit="10" stroke-dasharray="" stroke-dashoffset="0" style="mix-blend-mode: normal"><path d="M33.98,360.77c-19.33549,0 -35.01,-15.67451 -35.01,-35.01v-291.52c0,-19.33549 15.67451,-35.01 35.01,-35.01h412.04c19.33549,0 35.01,15.67451 35.01,35.01v291.52c0,19.33549 -15.67451,35.01 -35.01,35.01z" fill="#f2f2f2"/><g opacity="0.4"><path d="M479.63001,306.03998v-7.44c0.65,2.43 0.65,5 0,7.44z" fill="none"/><path d="M251.70001,17.61001l-19.48,-17.3h0.27l19.19,17.05l15.14,-17.05h0.23z" fill="#f6543b"/><path d="M262.91001,20.46001c1,-4.84 3.81,-9 7.94,-11.72c4.12,-2.72 9.06,-3.67 13.9,-2.68l0.09,0.02l-7.44,36.24l-0.09,-0.02c-3.29,-0.67 -6.2,-2.19 -8.54,-4.27c-4.78,-4.25 -7.24,-10.86 -5.86,-17.57zM268.88998,37.91001c2.3,2.04 5.15,3.53 8.37,4.21l7.37,-35.9c-4.77,-0.95 -9.63,-0.01 -13.69,2.67c-4.08,2.69 -6.88,6.82 -7.86,11.61c-1.36,6.65 1.07,13.2 5.81,17.41z" fill="#c75eeb"/><path d="M291.84999,1.97001c-0.58,-0.52 -1.1,-1.09 -1.58,-1.67h0.23c0.45,0.54 0.93,1.06 1.47,1.54c5.93,5.27 15.03,4.73 20.3,-1.2c0.1,-0.11 0.18,-0.22 0.27,-0.33h0.22c-0.12,0.15 -0.23,0.31 -0.36,0.45c-5.33,6 -14.55,6.55 -20.55,1.22z" fill="#fac900"/><path d="M391.1,105.70001l11.52,10.24v0.05l-3.09,15.05l-14.63,4.86l-11.52,-10.24v-0.05l3.09,-15.05zM402.42001,116.00001l-11.36,-10.09l-14.42,4.8l-3.06,14.89l11.36,10.09l14.42,-4.8z" fill="#61e061"/><path d="M389.24001,143.75l0.14,-0.05l35.7,-11.87l-0.03,0.15l-7.57,36.86l-28.25,-25.08zM424.83001,132.10001l-35.27,11.73l27.8,24.68l7.48,-36.41z" fill="#4ebfe9"/><path d="M465.51001,171.78001l14.12,12.54v0.24l-14.1,-12.53l-17.49,19.69l19.69,17.49l11.9,-13.41v0.27l-11.88,13.38l-19.95,-17.71z" fill="#f6543b"/><path d="M450.09001,156.46001c6,5.33 6.55,14.55 1.22,20.55c-5.33,6 -14.55,6.55 -20.55,1.22c-6,-5.33 -6.55,-14.55 -1.22,-20.55c5.33,-6 14.55,-6.55 20.55,-1.22zM449.97001,156.58999c-5.93,-5.27 -15.03,-4.73 -20.3,1.2c-5.27,5.93 -4.73,15.03 1.2,20.3c5.93,5.27 15.03,4.73 20.3,-1.2c5.27,-5.93 4.73,-15.03 -1.2,-20.3z" fill="#fac900"/><path d="M478.95001,212.31001c0.17,-0.82 0.41,-1.61 0.68,-2.38v0.51c-0.19,0.63 -0.37,1.26 -0.5,1.91c-0.66,3.18 -0.43,6.35 0.5,9.25v0.56c-1.09,-3.06 -1.38,-6.44 -0.68,-9.85z" fill="#c75eeb"/><path d="M479.63001,132.19001v-0.78l0.14,0.12l-0.01,0.06z" fill="#61e061"/><path d="M453.63001,126.16001l14.63,-4.86l11.39,10.12v0.78l-2.97,14.44l-14.63,4.86l-11.52,-10.24v-0.05l3.09,-15.05zM479.57001,131.60001l-11.36,-10.09l-14.42,4.8l-3.06,14.89l11.36,10.09l14.42,-4.8z" fill="#61e061"/><path d="M466.51001,159.30999l13.12,-4.36v0.18l-12.92,4.3l12.92,11.48v0.23l-13.26,-11.78z" fill="#4ebfe9"/><path d="M334.69001,55.62001l19.95,17.72l-17.72,19.95l-19.95,-17.72zM334.69999,55.85001l-17.49,19.69l19.69,17.49l17.49,-19.69z" fill="#f6543b"/><path d="M294.67,37.92001c5.33,-6 14.55,-6.55 20.55,-1.22c6,5.33 6.55,14.55 1.22,20.55c-5.33,6 -14.55,6.55 -20.55,1.22c-6,-5.33 -6.55,-14.55 -1.22,-20.55zM296.00001,58.34001c5.93,5.27 15.03,4.73 20.3,-1.2c5.27,-5.93 4.73,-15.03 -1.2,-20.3c-5.93,-5.27 -15.03,-4.73 -20.3,1.2c-5.27,5.93 -4.73,15.03 1.2,20.3z" fill="#fac900"/><path d="M348.14001,96.14001c1,-4.84 3.81,-9 7.94,-11.72c4.12,-2.72 9.06,-3.67 13.9,-2.68l0.09,0.02l-7.44,36.24l-0.09,-0.02c-3.29,-0.67 -6.2,-2.19 -8.54,-4.27c-4.78,-4.25 -7.24,-10.86 -5.86,-17.57zM348.31001,96.17001c-1.36,6.65 1.07,13.2 5.81,17.41c2.3,2.04 5.15,3.53 8.37,4.21l7.37,-35.9c-4.77,-0.95 -9.63,-0.01 -13.69,2.67c-4.08,2.69 -6.88,6.82 -7.86,11.61z" fill="#c75eeb"/><path d="M331.21,35.32001l-11.52,-10.24v-0.05l3.09,-15.05l14.63,-4.86l11.52,10.24v0.05l-3.09,15.05zM319.88998,25.03001l11.36,10.09l14.42,-4.8l3.06,-14.89l-11.36,-10.09l-14.42,4.8z" fill="#61e061"/><path d="M335.55001,43.18001l0.14,-0.05l35.7,-11.87l-0.03,0.15l-7.57,36.86l-28.25,-25.08zM371.14001,31.53001l-35.27,11.73l27.8,24.68l7.48,-36.41z" fill="#4ebfe9"/><path d="M411.83001,71.22001l19.95,17.72l-17.72,19.95l-19.95,-17.72zM411.84001,71.45001l-17.49,19.69l19.69,17.49l17.49,-19.69z" fill="#f6543b"/><path d="M375.85,57.11001c5.33,-6 14.55,-6.55 20.55,-1.22c6,5.33 6.55,14.55 1.22,20.55c-5.33,6 -14.55,6.55 -20.55,1.22c-6,-5.33 -6.55,-14.55 -1.22,-20.55zM377.18001,77.53001c5.93,5.27 15.03,4.73 20.3,-1.2c5.27,-5.93 4.73,-15.03 -1.2,-20.3c-5.93,-5.27 -15.03,-4.73 -20.3,1.2c-5.27,5.93 -4.73,15.03 1.2,20.3z" fill="#fac900"/><path d="M447.11001,97.34001l0.09,0.02l-7.44,36.24l-0.09,-0.02c-3.29,-0.67 -6.2,-2.19 -8.54,-4.27c-4.78,-4.25 -7.24,-10.86 -5.86,-17.57c1,-4.84 3.81,-9 7.94,-11.72c4.12,-2.72 9.06,-3.67 13.9,-2.68zM446.99001,97.49001c-4.77,-0.95 -9.63,-0.01 -13.69,2.67c-4.08,2.69 -6.88,6.82 -7.86,11.61c-1.36,6.65 1.07,13.2 5.81,17.41c2.3,2.04 5.15,3.53 8.37,4.21z" fill="#c75eeb"/><path d="M439.54001,74.35001l-11.52,-10.24v-0.05l3.09,-15.05l14.63,-4.86l11.52,10.24v0.05l-3.09,15.05zM428.22001,64.06001l11.36,10.09l14.42,-4.8l3.06,-14.89l-11.36,-10.09l-14.42,4.8z" fill="#61e061"/><path d="M479.63001,70.69001v-0.36l0.09,-0.03l-0.03,0.15z" fill="#4ebfe9"/><path d="M443.88001,82.22001l0.14,-0.05l35.62,-11.85v0.37l-7.52,36.61l-28.25,-25.08zM479.47001,70.56001l-35.27,11.73l27.8,24.68l7.48,-36.41z" fill="#4ebfe9"/><path d="M371.61001,14.03001l12.18,-13.72h0.23l-12.16,13.7l19.69,17.49l17.49,-19.69l-12.95,-11.5h0.27l12.92,11.48l-17.71,19.95z" fill="#f6543b"/><path d="M402.78001,34.60001c1,-4.84 3.81,-9 7.94,-11.72c4.12,-2.72 9.06,-3.67 13.9,-2.68l0.09,0.02l-7.44,36.24l-0.09,-0.02c-3.29,-0.67 -6.19,-2.19 -8.54,-4.27c-4.78,-4.25 -7.24,-10.86 -5.86,-17.57zM408.76001,52.05001c2.3,2.04 5.15,3.53 8.37,4.21l7.37,-35.9c-4.77,-0.95 -9.63,-0.01 -13.69,2.67c-4.08,2.69 -6.88,6.82 -7.86,11.61c-1.36,6.65 1.07,13.2 5.81,17.41z" fill="#c75eeb"/><path d="M418.43001,6.74001l-7.23,-6.43h0.26l6.86,6.09l1.25,-6.09h0.18z" fill="#4ebfe9"/><path d="M448.76001,29.63001l17.72,-19.95l7.64,6.79c0.12,0.18 0.24,0.36 0.35,0.54l-7.98,-7.08l-17.49,19.69l19.69,17.49l10.93,-12.31c0,0.08 0,0.16 0,0.25l-10.92,12.3l-19.95,-17.72z" fill="#f6543b"/><path d="M427.69001,0.31h0.19c-1.96,5.39 -0.58,11.65 3.95,15.68c5.93,5.27 15.03,4.73 20.3,-1.2c3.21,-3.61 4.25,-8.4 3.24,-12.78c0.06,0.02 0.13,0.04 0.19,0.06c0.98,4.4 -0.08,9.2 -3.3,12.83c-5.33,6 -14.55,6.55 -20.55,1.22c-4.57,-4.06 -5.97,-10.38 -4.02,-15.81z" fill="#fac900"/><path d="M479.63001,52.14001v3.58c-0.12,-1.18 -0.12,-2.37 0,-3.58z" fill="#c75eeb"/><path d="M58.35001,68.48l-11.52,-10.24v-0.05l3.09,-15.05l14.63,-4.86l11.52,10.24v0.05l-3.09,15.05zM47.03001,58.19001l11.36,10.09l14.42,-4.8l3.06,-14.89l-11.36,-10.09l-14.42,4.8z" fill="#61e061"/><path d="M62.69001,76.34001l0.14,-0.05l35.7,-11.87l-0.03,0.15l-7.57,36.86l-28.25,-25.08zM98.29001,64.69001l-35.27,11.73l27.8,24.68l7.48,-36.41z" fill="#4ebfe9"/><path d="M138.96999,104.37001l19.95,17.72l-17.72,19.95l-19.95,-17.72zM138.98001,104.61001l-17.49,19.69l19.69,17.49l17.49,-19.69z" fill="#f6543b"/><path d="M124.76001,109.60001c-5.33,6 -14.55,6.55 -20.55,1.22c-6,-5.33 -6.55,-14.55 -1.22,-20.55c5.33,-6 14.55,-6.55 20.55,-1.22c6,5.33 6.55,14.55 1.22,20.55zM123.43001,89.18001c-5.93,-5.27 -15.03,-4.73 -20.3,1.2c-5.27,5.93 -4.73,15.03 1.2,20.3c5.93,5.27 15.03,4.73 20.3,-1.2c5.27,-5.93 4.73,-15.03 -1.2,-20.3z" fill="#fac900"/><path d="M152.42001,144.89999c1,-4.84 3.81,-9 7.94,-11.72c4.12,-2.72 9.06,-3.67 13.9,-2.68l0.09,0.02l-7.44,36.24l-0.09,-0.02c-3.29,-0.67 -6.19,-2.19 -8.54,-4.27c-4.78,-4.25 -7.24,-10.86 -5.86,-17.57zM158.39001,162.33999c2.3,2.04 5.15,3.53 8.37,4.21l7.37,-35.9c-4.77,-0.95 -9.63,-0.01 -13.69,2.67c-4.08,2.69 -6.88,6.82 -7.86,11.61c-1.36,6.65 1.07,13.2 5.81,17.41z" fill="#c75eeb"/><path d="M141.70001,53.89001l11.52,10.24v0.05l-3.09,15.05l-14.63,4.86l-11.52,-10.24v-0.05l3.09,-15.05zM153.02001,64.19001l-11.36,-10.09l-14.42,4.8l-3.06,14.89l11.36,10.09l14.42,-4.8z" fill="#61e061"/><path d="M139.83001,91.94001l0.14,-0.05l35.7,-11.87l-0.03,0.15l-7.57,36.86l-28.25,-25.08zM175.43001,80.29l-35.27,11.73l27.8,24.68l7.48,-36.41z" fill="#4ebfe9"/><path d="M10.38001,25.88001l-7.03,-6.24c0.03,-0.05 0.05,-0.11 0.08,-0.16l6.93,6.15l17.49,-19.69l-4.3,-3.82c0.06,-0.02 0.13,-0.04 0.19,-0.06l4.35,3.86z" fill="#f6543b"/><path d="M201.90001,125.20001c-5.33,6 -14.55,6.55 -20.55,1.22c-6,-5.33 -6.55,-14.55 -1.22,-20.55c5.33,-6 14.55,-6.55 20.55,-1.22c6,5.33 6.55,14.55 1.22,20.55zM200.57001,104.78001c-5.93,-5.27 -15.03,-4.73 -20.3,1.2c-5.27,5.93 -4.73,15.03 1.2,20.3c5.93,5.27 15.03,4.73 20.3,-1.2c5.27,-5.93 4.73,-15.03 -1.2,-20.3z" fill="#fac900"/><path d="M21.59001,28.73001c1,-4.84 3.81,-9 7.94,-11.72c4.12,-2.72 9.06,-3.67 13.9,-2.68l0.09,0.02l-7.44,36.24l-0.09,-0.02c-3.29,-0.67 -6.19,-2.19 -8.54,-4.27c-4.78,-4.25 -7.24,-10.86 -5.86,-17.57zM27.57001,46.17001c2.3,2.04 5.15,3.53 8.37,4.21l7.37,-35.9c-4.77,-0.95 -9.63,-0.01 -13.69,2.67c-4.08,2.69 -6.88,6.82 -7.86,11.61c-1.36,6.65 1.07,13.2 5.81,17.41z" fill="#c75eeb"/><path d="M37.23999,0.86001l-0.61,-0.55h0.26l0.24,0.22l0.05,-0.22h0.17z" fill="#4ebfe9"/><path d="M87.51001,41.46999l-19.95,-17.72l17.72,-19.95l19.95,17.72zM87.50001,41.23001l17.49,-19.69l-19.69,-17.49l-17.49,19.69z" fill="#f6543b"/><path d="M50.53001,10.25001c-2.98,-2.64 -4.61,-6.24 -4.85,-9.93h0.17c0.24,3.64 1.85,7.19 4.79,9.8c5.93,5.27 15.03,4.73 20.3,-1.2c2.21,-2.48 3.38,-5.52 3.58,-8.6h0.17c-0.2,3.12 -1.39,6.2 -3.62,8.71c-5.33,6 -14.55,6.55 -20.55,1.22z" fill="#fac900"/><path d="M106.67001,32.61001c4.12,-2.72 9.06,-3.67 13.9,-2.68l0.09,0.02l-7.44,36.24l-0.09,-0.02c-3.29,-0.67 -6.19,-2.19 -8.54,-4.27c-4.78,-4.25 -7.24,-10.86 -5.86,-17.57c1,-4.84 3.81,-9 7.94,-11.72zM98.90001,44.36001c-1.36,6.65 1.07,13.2 5.81,17.41c2.3,2.04 5.15,3.53 8.37,4.21l7.37,-35.9c-4.77,-0.95 -9.63,-0.01 -13.69,2.67c-4.08,2.69 -6.88,6.82 -7.86,11.61z" fill="#c75eeb"/><path d="M113.00001,6.95001l-7.47,-6.64h0.28l7.23,6.42l14.42,-4.79l0.34,-1.63h0.19l-0.36,1.77z" fill="#61e061"/><path d="M153.15001,3.03001l-7.57,36.86l-28.25,-25.08l0.14,-0.05l35.7,-11.87l-0.03,0.15zM117.66001,14.88001l27.8,24.68l7.48,-36.41l-35.27,11.73z" fill="#4ebfe9"/><path d="M175.90001,62.78001l17.72,-19.95l19.95,17.72l-17.72,19.95zM176.14001,62.77001l19.69,17.49l17.49,-19.69l-19.69,-17.49z" fill="#f6543b"/><path d="M157.63,28.73001c5.33,-6 14.55,-6.55 20.55,-1.22c6,5.33 6.55,14.55 1.22,20.55c-5.33,6 -14.55,6.55 -20.55,1.22c-6,-5.33 -6.55,-14.55 -1.22,-20.55zM158.96999,49.15001c5.93,5.27 15.03,4.73 20.3,-1.2c5.27,-5.93 4.73,-15.03 -1.2,-20.3c-5.93,-5.27 -15.03,-4.73 -20.3,1.2c-5.27,5.93 -4.73,15.03 1.2,20.3z" fill="#fac900"/><path d="M228.90001,68.95999l0.09,0.02l-7.44,36.24l-0.09,-0.02c-3.29,-0.67 -6.19,-2.19 -8.54,-4.27c-4.78,-4.25 -7.24,-10.86 -5.86,-17.57c1,-4.84 3.81,-9 7.94,-11.72c4.12,-2.72 9.06,-3.67 13.9,-2.68zM228.78001,69.11001c-4.77,-0.95 -9.63,-0.01 -13.69,2.67c-4.08,2.69 -6.88,6.82 -7.86,11.61c-1.36,6.65 1.07,13.2 5.81,17.41c2.3,2.04 5.15,3.53 8.37,4.21z" fill="#c75eeb"/><path d="M178.62001,12.26001l2.46,-11.95h0.19l-2.45,11.93l11.36,10.09l14.42,-4.79l3.06,-14.89l-2.63,-2.34h0.28l2.56,2.27l-0.01,0.06l-3.09,15.04l-14.63,4.87l-11.53,-10.24z" fill="#61e061"/><path d="M230.29001,18.63001l-7.57,36.86l-28.25,-25.08l0.14,-0.05l35.7,-11.87l-0.03,0.15zM194.80001,30.48001l27.8,24.68l7.48,-36.41l-35.27,11.73z" fill="#4ebfe9"/><path d="M234.78001,44.33001c5.33,-6 14.55,-6.55 20.55,-1.22c6,5.33 6.55,14.55 1.22,20.55c-5.33,6 -14.55,6.55 -20.55,1.22c-6,-5.33 -6.55,-14.55 -1.22,-20.55zM236.11001,64.75001c5.93,5.27 15.03,4.73 20.3,-1.2c5.27,-5.93 4.73,-15.03 -1.2,-20.3c-5.93,-5.27 -15.03,-4.73 -20.3,1.2c-5.27,5.93 -4.73,15.03 1.2,20.3z" fill="#fac900"/><path d="M167.78001,4.63c-3.29,-0.67 -6.19,-2.19 -8.54,-4.27c-0.02,-0.02 -0.05,-0.05 -0.05,-0.05h0.26c2.28,2 5.09,3.46 8.27,4.13l0.85,-4.13h0.18l-0.89,4.34l-0.09,-0.02z" fill="#c75eeb"/><path d="M274.40001,260.33001l-11.52,-10.24v-0.05l3.09,-15.05l14.63,-4.86l11.52,10.24v0.05l-3.09,15.05zM263.08,250.03001l11.36,10.09l14.42,-4.8l3.06,-14.89l-11.36,-10.09l-14.42,4.8z" fill="#61e061"/><path d="M278.74001,268.18999l0.14,-0.05l35.7,-11.87l-0.03,0.15l-7.57,36.86l-28.25,-25.08zM314.34,256.53l-35.27,11.73l27.8,24.68l7.48,-36.41z" fill="#4ebfe9"/><path d="M374.97001,313.93999l-17.72,19.95l-19.95,-17.72l17.72,-19.95zM374.73001,313.94998l-19.69,-17.49l-17.49,19.69l19.69,17.49z" fill="#f6543b"/><path d="M320.25998,302.65998c-6,-5.33 -6.55,-14.55 -1.22,-20.55c5.33,-6 14.55,-6.55 20.55,-1.22c6,5.33 6.55,14.55 1.22,20.55c-5.33,6 -14.55,6.55 -20.55,1.22zM340.68001,301.33001c5.27,-5.93 4.73,-15.03 -1.2,-20.3c-5.93,-5.27 -15.03,-4.73 -20.3,1.2c-5.27,5.93 -4.73,15.03 1.2,20.3c5.93,5.27 15.03,4.73 20.3,-1.2z" fill="#fac900"/><path d="M390.30001,322.34001l0.09,0.02l-7.44,36.24l-0.09,-0.02c-3.29,-0.67 -6.19,-2.19 -8.54,-4.27c-4.78,-4.25 -7.24,-10.86 -5.86,-17.57c1,-4.84 3.81,-9 7.94,-11.72c4.12,-2.72 9.06,-3.67 13.9,-2.68zM390.19001,322.5c-4.77,-0.95 -9.63,-0.01 -13.69,2.67c-4.08,2.69 -6.88,6.82 -7.86,11.61c-1.36,6.65 1.07,13.2 5.81,17.41c2.3,2.04 5.15,3.53 8.37,4.21z" fill="#c75eeb"/><path d="M357.75001,245.74001l11.52,10.24v0.05l-3.09,15.05l-14.63,4.86l-11.52,-10.24v-0.05l3.09,-15.05zM369.07001,256.03l-11.36,-10.09l-14.42,4.8l-3.06,14.89l11.36,10.09l14.42,-4.8z" fill="#61e061"/><path d="M355.88001,283.78998l0.14,-0.05l35.7,-11.87l-0.03,0.15l-7.57,36.86l-28.25,-25.08zM391.48001,272.13l-35.27,11.73l27.8,24.68l7.48,-36.41z" fill="#4ebfe9"/><path d="M224.20001,180.05001l19.95,17.72l-17.72,19.95l-19.95,-17.72zM224.21001,180.29001l-17.49,19.69l19.69,17.49l17.49,-19.69z" fill="#f6543b"/><path d="M417.95001,317.03998c-5.33,6 -14.55,6.55 -20.55,1.22c-6,-5.33 -6.55,-14.55 -1.22,-20.55c5.33,-6 14.55,-6.55 20.55,-1.22c6,5.33 6.55,14.55 1.22,20.55zM416.62001,296.63c-5.93,-5.27 -15.03,-4.73 -20.3,1.2c-5.27,5.93 -4.73,15.03 1.2,20.3c5.93,5.27 15.03,4.73 20.3,-1.2c5.27,-5.93 4.73,-15.03 -1.2,-20.3z" fill="#fac900"/><path d="M205.95001,181.69001c-5.33,6 -14.55,6.55 -20.55,1.22c-6,-5.33 -6.55,-14.55 -1.22,-20.55c5.33,-6 14.55,-6.55 20.55,-1.22c6,5.33 6.55,14.55 1.22,20.55zM204.62001,161.27001c-5.93,-5.27 -15.03,-4.73 -20.3,1.2c-5.27,5.93 -4.73,15.03 1.2,20.3c5.93,5.27 15.03,4.73 20.3,-1.2c5.27,-5.93 4.73,-15.03 -1.2,-20.3z" fill="#fac900"/><path d="M237.64001,220.58001c1,-4.84 3.81,-9 7.94,-11.72c4.12,-2.72 9.06,-3.67 13.9,-2.68l0.09,0.02l-7.44,36.24l-0.09,-0.02c-3.29,-0.67 -6.19,-2.19 -8.54,-4.27c-4.78,-4.25 -7.24,-10.86 -5.86,-17.57zM237.81001,220.61001c-1.36,6.65 1.07,13.2 5.81,17.41c2.3,2.04 5.15,3.53 8.37,4.21l7.37,-35.9c-4.77,-0.95 -9.63,-0.01 -13.69,2.67c-4.08,2.69 -6.88,6.82 -7.86,11.61z" fill="#c75eeb"/><path d="M226.92001,129.57001l11.52,10.24v0.05l-3.09,15.05l-14.63,4.86l-11.52,-10.24v-0.05l3.09,-15.05zM238.24001,139.86001l-11.36,-10.09l-14.42,4.8l-3.06,14.89l11.36,10.09l14.42,-4.8z" fill="#61e061"/><path d="M225.06001,167.61999l0.14,-0.05l35.7,-11.87l-0.03,0.15l-7.57,36.86l-28.25,-25.08zM260.65001,155.96001l-35.27,11.73l27.8,24.68l7.48,-36.41z" fill="#4ebfe9"/><path d="M301.34,195.65001l19.95,17.72l-17.72,19.95l-19.95,-17.72zM301.34999,195.89001l-17.49,19.69l19.69,17.49l17.49,-19.69z" fill="#f6543b"/><path d="M265.35999,181.54001c5.33,-6 14.55,-6.55 20.55,-1.22c6,5.33 6.55,14.55 1.22,20.55c-5.33,6 -14.55,6.55 -20.55,1.22c-6,-5.33 -6.55,-14.55 -1.22,-20.55zM266.69001,201.96001c5.93,5.27 15.03,4.73 20.3,-1.2c5.27,-5.93 4.73,-15.03 -1.2,-20.3c-5.93,-5.27 -15.03,-4.73 -20.3,1.2c-5.27,5.93 -4.73,15.03 1.2,20.3z" fill="#fac900"/><path d="M336.62001,221.77001l0.09,0.02l-7.44,36.24l-0.09,-0.02c-3.29,-0.67 -6.19,-2.19 -8.54,-4.27c-4.78,-4.25 -7.24,-10.86 -5.86,-17.57c1,-4.84 3.81,-9 7.94,-11.72c4.12,-2.72 9.06,-3.67 13.9,-2.68zM336.50001,221.93001c-4.77,-0.95 -9.63,-0.01 -13.69,2.67c-4.08,2.69 -6.88,6.82 -7.86,11.61c-1.36,6.65 1.07,13.2 5.81,17.41c2.3,2.04 5.15,3.53 8.37,4.21z" fill="#c75eeb"/><path d="M335.25001,168.60001l11.52,10.24v0.05l-3.09,15.05l-14.63,4.86l-11.52,-10.24v-0.05l3.09,-15.05zM346.57001,178.89001l-11.36,-10.09l-14.42,4.8l-3.06,14.89l11.36,10.09l14.42,-4.8z" fill="#61e061"/><path d="M333.38998,206.65001l0.14,-0.05l35.7,-11.87l-0.03,0.15l-7.57,36.86l-28.25,-25.08zM368.98001,195.00001l-35.27,11.73l27.8,24.68l7.48,-36.41z" fill="#4ebfe9"/><path d="M429.61001,252.40001l-17.72,19.95l-19.95,-17.72l17.72,-19.95zM429.37001,252.41001l-19.69,-17.49l-17.49,19.69l19.69,17.49z" fill="#f6543b"/><path d="M394.24001,219.36001c6,5.33 6.55,14.55 1.22,20.55c-5.33,6 -14.55,6.55 -20.55,1.22c-6,-5.33 -6.55,-14.55 -1.22,-20.55c5.33,-6 14.55,-6.55 20.55,-1.22zM394.12001,219.49001c-5.93,-5.27 -15.03,-4.73 -20.3,1.2c-5.27,5.93 -4.73,15.03 1.2,20.3c5.93,5.27 15.03,4.73 20.3,-1.2c5.27,-5.93 4.73,-15.03 -1.2,-20.3z" fill="#fac900"/><path d="M423.11001,275.21001c1,-4.84 3.81,-9 7.94,-11.72c4.12,-2.72 9.06,-3.67 13.9,-2.68l0.09,0.02l-7.44,36.24l-0.09,-0.02c-3.29,-0.67 -6.19,-2.19 -8.54,-4.27c-4.78,-4.25 -7.24,-10.86 -5.86,-17.57zM429.09001,292.65c2.3,2.04 5.15,3.53 8.37,4.21l7.37,-35.9c-4.77,-0.95 -9.63,-0.01 -13.69,2.67c-4.08,2.69 -6.88,6.82 -7.86,11.61c-1.36,6.65 1.07,13.2 5.81,17.41z" fill="#c75eeb"/><path d="M406.19001,214.39001l-11.52,-10.24v-0.05l3.09,-15.05l14.63,-4.86l11.52,10.24v0.05l-3.09,15.05zM394.87001,204.09001l11.36,10.09l14.42,-4.8l3.06,-14.89l-11.36,-10.09l-14.42,4.8z" fill="#61e061"/><path d="M446.34001,210.47001l-7.57,36.86l-28.25,-25.08l0.14,-0.05l35.7,-11.87l-0.03,0.15zM410.85,222.33001l27.8,24.68l7.48,-36.41l-35.27,11.73z" fill="#4ebfe9"/><path d="M278.84,118.51001l19.95,17.72l-17.72,19.95l-19.95,-17.72zM278.84999,118.75001l-17.49,19.69l19.69,17.49l17.49,-19.69z" fill="#f6543b"/><path d="M450.83001,236.17001c5.33,-6 14.55,-6.55 20.55,-1.22c6,5.33 6.55,14.55 1.22,20.55c-5.33,6 -14.55,6.55 -20.55,1.22c-6,-5.33 -6.55,-14.55 -1.22,-20.55zM452.16001,256.59001c5.93,5.27 15.03,4.73 20.3,-1.2c5.27,-5.93 4.73,-15.03 -1.2,-20.3c-5.93,-5.27 -15.03,-4.73 -20.3,1.2c-5.27,5.93 -4.73,15.03 1.2,20.3z" fill="#fac900"/><path d="M259.37001,99.60001c6,5.33 6.55,14.55 1.22,20.55c-5.33,6 -14.55,6.55 -20.55,1.22c-6,-5.33 -6.55,-14.55 -1.22,-20.55c5.33,-6 14.55,-6.55 20.55,-1.22zM259.25998,99.74001c-5.93,-5.27 -15.03,-4.73 -20.3,1.2c-5.27,5.93 -4.73,15.03 1.2,20.3c5.93,5.27 15.03,4.73 20.3,-1.2c5.27,-5.93 4.73,-15.03 -1.2,-20.3z" fill="#fac900"/><path d="M298.13998,176.61001c-4.78,-4.25 -7.24,-10.86 -5.86,-17.57c1,-4.84 3.81,-9 7.94,-11.72c4.12,-2.72 9.06,-3.67 13.9,-2.68l0.09,0.02l-7.44,36.24l-0.09,-0.02c-3.29,-0.67 -6.19,-2.19 -8.54,-4.27zM298.25998,176.48001c2.3,2.04 5.15,3.53 8.37,4.21l7.37,-35.9c-4.77,-0.95 -9.63,-0.01 -13.69,2.67c-4.08,2.69 -6.88,6.82 -7.86,11.61c-1.36,6.65 1.07,13.2 5.81,17.41z" fill="#c75eeb"/><path d="M281.56999,68.03001l11.52,10.24v0.05l-3.09,15.05l-14.63,4.86l-11.52,-10.24v-0.05l3.09,-15.05zM292.88998,78.31999l-11.36,-10.09l-14.42,4.8l-3.06,14.89l11.36,10.09l14.42,-4.8z" fill="#61e061"/><path d="M279.69999,106.08001l0.14,-0.05l35.7,-11.87l-0.03,0.15l-7.57,36.86l-28.25,-25.08zM315.29001,94.43001l-35.27,11.73l27.8,24.68l7.48,-36.41z" fill="#4ebfe9"/><path d="M355.98001,134.11001l19.95,17.72l-17.72,19.95l-19.95,-17.72zM355.99001,134.35001l-17.49,19.69l19.69,17.49l17.49,-19.69z" fill="#f6543b"/><path d="M320.00001,120.01001c5.33,-6 14.55,-6.55 20.55,-1.22c6,5.33 6.55,14.55 1.22,20.55c-5.33,6 -14.55,6.55 -20.55,1.22c-6,-5.33 -6.55,-14.55 -1.22,-20.55zM321.33,140.42001c5.93,5.27 15.03,4.73 20.3,-1.2c5.27,-5.93 4.73,-15.03 -1.2,-20.3c-5.93,-5.27 -15.03,-4.73 -20.3,1.2c-5.27,5.93 -4.73,15.03 1.2,20.3z" fill="#fac900"/><path d="M377.36001,162.92001c4.12,-2.72 9.06,-3.67 13.9,-2.68l0.09,0.02l-7.44,36.24l-0.09,-0.02c-3.29,-0.67 -6.19,-2.19 -8.54,-4.27c-4.78,-4.25 -7.24,-10.86 -5.86,-17.57c1,-4.84 3.81,-9 7.94,-11.72zM369.6,174.67001c-1.36,6.65 1.07,13.2 5.81,17.41c2.3,2.04 5.15,3.53 8.37,4.21l7.37,-35.9c-4.77,-0.95 -9.63,-0.01 -13.69,2.67c-4.08,2.69 -6.88,6.82 -7.86,11.61z" fill="#c75eeb"/><path d="M420.78001,353c2.27,2.02 3.75,4.59 4.44,7.33h-0.18c-0.68,-2.7 -2.15,-5.22 -4.38,-7.2c-5.93,-5.27 -15.03,-4.73 -20.3,1.2c-1.58,1.77 -2.62,3.83 -3.17,5.99h-0.18c0.55,-2.2 1.61,-4.3 3.22,-6.11c5.33,-6 14.55,-6.55 20.55,-1.22z" fill="#fac900"/><path d="M442.98001,321.40998l11.52,10.24v0.05l-3.09,15.05l-14.63,4.86l-11.52,-10.24v-0.05l3.09,-15.05zM454.30001,331.71001l-11.36,-10.09l-14.42,4.8l-3.06,14.89l11.36,10.09l14.42,-4.8z" fill="#61e061"/><path d="M441.11001,359.48001l0.14,-0.05l28.13,-9.36c-0.1,0.09 -0.2,0.18 -0.3,0.28l-27.64,9.19l0.87,0.77h-0.26l-0.95,-0.84z" fill="#4ebfe9"/><path d="M479.00001,331.91998l-1.83,-1.62l2.38,-2.68c0,0.1 -0.02,0.19 -0.02,0.29l-2.11,2.38l1.62,1.44c-0.02,0.07 -0.03,0.13 -0.04,0.2z" fill="#f6543b"/><path d="M475.43001,291.44998c2.05,1.82 3.45,4.11 4.21,6.56v0.59c-0.7,-2.63 -2.15,-5.08 -4.33,-7.02c-5.93,-5.27 -15.03,-4.73 -20.3,1.2c-5.27,5.93 -4.73,15.03 1.2,20.3c5.93,5.27 15.03,4.73 20.3,-1.2c1.53,-1.73 2.56,-3.74 3.12,-5.84v0.64c-0.59,1.91 -1.58,3.73 -2.99,5.32c-5.33,6 -14.55,6.55 -20.55,1.22c-6,-5.33 -6.55,-14.55 -1.22,-20.55c5.33,-6 14.55,-6.55 20.55,-1.22z" fill="#fac900"/><path d="M30.71001,266.47001l-19.95,-17.72l17.72,-19.95l19.95,17.72zM30.69001,266.22997l17.49,-19.69l-19.69,-17.49l-17.49,19.69z" fill="#f6543b"/><path d="M-0.35999,238.41001v-0.18c5.1,1.37 10.76,-0.11 14.5,-4.32c5.27,-5.93 4.73,-15.03 -1.2,-20.3c-3.76,-3.33 -8.78,-4.33 -13.3,-3.12v-0.18c4.56,-1.21 9.62,-0.19 13.41,3.17c6,5.33 6.55,14.55 1.22,20.55c-3.77,4.24 -9.48,5.74 -14.63,4.38z" fill="#fac900"/><path d="M49.86001,257.61c4.12,-2.72 9.06,-3.67 13.9,-2.68l0.09,0.02l-7.44,36.24l-0.09,-0.02c-3.29,-0.67 -6.19,-2.19 -8.54,-4.27c-4.78,-4.25 -7.24,-10.86 -5.86,-17.57c1,-4.84 3.81,-9 7.94,-11.72zM42.09001,269.36c-1.36,6.65 1.07,13.2 5.81,17.41c2.3,2.04 5.15,3.53 8.37,4.21l7.37,-35.9c-4.77,-0.95 -9.63,-0.01 -13.69,2.67c-4.08,2.69 -6.88,6.82 -7.86,11.61z" fill="#c75eeb"/><path d="M25.00001,208.52001l-11.52,-10.24v-0.05l3.09,-15.05l14.63,-4.86l11.52,10.24v0.05l-3.09,15.05zM13.68001,198.22001l11.36,10.09l14.42,-4.8l3.06,-14.89l-11.36,-10.09l-14.42,4.8z" fill="#61e061"/><path d="M29.34001,216.37001l0.14,-0.05l35.7,-11.87l-0.03,0.15l-7.57,36.86l-28.25,-25.08zM64.92999,204.72001l-35.27,11.73l27.8,24.68l7.48,-36.41z" fill="#4ebfe9"/><path d="M90.19001,229.08001c6,5.33 6.55,14.55 1.22,20.55c-5.33,6 -14.55,6.55 -20.55,1.22c-6,-5.33 -6.55,-14.55 -1.22,-20.55c5.33,-6 14.55,-6.55 20.55,-1.22zM90.08001,229.22001c-5.93,-5.27 -15.03,-4.73 -20.3,1.2c-5.27,5.93 -4.73,15.03 1.2,20.3c5.93,5.27 15.03,4.73 20.3,-1.2c5.27,-5.93 4.73,-15.03 -1.2,-20.3z" fill="#fac900"/><path d="M2.72001,190.63001l-0.09,-0.02c-1.04,-0.21 -2.04,-0.52 -3,-0.89v-0.19c0.94,0.37 1.93,0.67 2.95,0.89l7.37,-35.9c-3.51,-0.71 -7.07,-0.37 -10.32,0.92v-0.19c3.29,-1.29 6.89,-1.62 10.44,-0.89l0.09,0.02l-7.44,36.24z" fill="#c75eeb"/><path d="M2.49999,131.38001l-2.87,-2.55v-0.25l2.92,2.59l14.42,-4.8l3.05,-14.88l-11.36,-10.09l-9.03,3v-0.2l9.08,-3.02l11.52,10.24l-0.01,0.05l-3.09,15.05z" fill="#61e061"/><path d="M42.66001,127.46001l-7.57,36.86l-28.25,-25.08l0.14,-0.05l35.7,-11.87l-0.03,0.15zM7.16001,139.32001l27.8,24.68l7.48,-36.41l-35.27,11.73z" fill="#4ebfe9"/><path d="M103.07001,184.99001l-17.72,19.95l-19.95,-17.72l17.72,-19.95zM102.83001,185.00001l-19.69,-17.49l-17.49,19.69l19.69,17.49z" fill="#f6543b"/><path d="M47.14001,153.16001c5.33,-6 14.55,-6.55 20.55,-1.22c6,5.33 6.55,14.55 1.22,20.55c-5.33,6 -14.55,6.55 -20.55,1.22c-6,-5.33 -6.55,-14.55 -1.22,-20.55zM48.47001,173.58001c5.93,5.27 15.03,4.73 20.3,-1.2c5.27,-5.93 4.73,-15.03 -1.2,-20.3c-5.93,-5.27 -15.03,-4.73 -20.3,1.2c-5.27,5.93 -4.73,15.03 1.2,20.3z" fill="#fac900"/><path d="M96.57001,207.80001c1,-4.84 3.81,-9 7.94,-11.72c4.12,-2.72 9.06,-3.67 13.9,-2.68l0.09,0.02l-7.44,36.24l-0.09,-0.02c-3.29,-0.67 -6.2,-2.19 -8.54,-4.27c-4.78,-4.25 -7.24,-10.86 -5.86,-17.57zM102.54001,225.24001c2.3,2.04 5.15,3.53 8.37,4.21l7.37,-35.9c-4.77,-0.95 -9.63,-0.01 -13.69,2.67c-4.08,2.69 -6.88,6.82 -7.86,11.61c-1.36,6.65 1.07,13.2 5.81,17.41z" fill="#c75eeb"/><path d="M94.27001,142.11999l-14.63,4.86l-11.52,-10.24v-0.05l3.09,-15.05l14.63,-4.86l11.52,10.24v0.05zM94.11001,141.97l3.06,-14.89l-11.36,-10.09l-14.42,4.8l-3.06,14.89l11.36,10.09z" fill="#61e061"/><path d="M83.98001,154.83999l0.14,-0.05l35.7,-11.87l-0.03,0.15l-7.57,36.86l-28.25,-25.08zM119.58001,143.19001l-35.27,11.73l27.8,24.68l7.48,-36.41z" fill="#4ebfe9"/><path d="M125.50001,189.31001c-6,-5.33 -6.55,-14.55 -1.22,-20.55c5.33,-6 14.55,-6.55 20.55,-1.22c6,5.33 6.55,14.55 1.22,20.55c-5.33,6 -14.55,6.55 -20.55,1.22zM125.61001,189.18001c5.93,5.27 15.03,4.73 20.3,-1.2c5.27,-5.93 4.73,-15.03 -1.2,-20.3c-5.93,-5.27 -15.03,-4.73 -20.3,1.2c-5.27,5.93 -4.73,15.03 1.2,20.3z" fill="#fac900"/><path d="M31.66001,104.37001l-19.95,-17.72l17.72,-19.95l19.95,17.72zM31.65001,104.13001l17.49,-19.69l-19.69,-17.49l-17.49,19.69z" fill="#f6543b"/><path d="M15.21001,71.90998c-4.01,4.51 -10.21,5.94 -15.59,4.11v-0.19c5.33,1.83 11.49,0.43 15.46,-4.04c5.27,-5.93 4.73,-15.03 -1.2,-20.3c-4.02,-3.57 -9.5,-4.46 -14.25,-2.82v-0.18c4.8,-1.63 10.32,-0.72 14.37,2.88c6,5.33 6.55,14.55 1.22,20.55z" fill="#fac900"/><path d="M64.72001,92.82001l0.09,0.02l-7.44,36.24l-0.09,-0.02c-3.29,-0.67 -6.2,-2.19 -8.54,-4.27c-4.78,-4.25 -7.24,-10.86 -5.86,-17.57c1,-4.84 3.81,-9 7.94,-11.72c4.12,-2.72 9.06,-3.67 13.9,-2.68zM64.60001,92.98001c-4.77,-0.95 -9.63,-0.01 -13.69,2.67c-4.08,2.69 -6.88,6.82 -7.86,11.61c-1.36,6.65 1.07,13.2 5.81,17.41c2.3,2.04 5.15,3.53 8.37,4.21z" fill="#c75eeb"/><path d="M170.11001,354.57001l6.48,5.74h-0.29l-6.23,-5.53l-14.42,4.8l-0.15,0.73h-0.19l0.18,-0.88z" fill="#61e061"/><path d="M113.70001,304.49l19.95,17.72l-17.72,19.95l-19.95,-17.72zM113.71001,304.72997l-17.49,19.69l19.69,17.49l17.49,-19.69z" fill="#f6543b"/><path d="M95.45001,306.13c-5.33,6 -14.55,6.55 -20.55,1.22c-6,-5.33 -6.55,-14.55 -1.22,-20.55c5.33,-6 14.55,-6.55 20.55,-1.22c6,5.33 6.55,14.55 1.22,20.55zM94.12001,285.71001c-5.93,-5.27 -15.03,-4.73 -20.3,1.2c-5.27,5.93 -4.73,15.03 1.2,20.3c5.93,5.27 15.03,4.73 20.3,-1.2c5.27,-5.93 4.73,-15.03 -1.2,-20.3z" fill="#fac900"/><path d="M148.99001,330.59997l0.09,0.02l-6.1,29.69h-0.18l6.07,-29.55c-4.77,-0.95 -9.63,-0.01 -13.69,2.67c-4.08,2.69 -6.88,6.82 -7.86,11.61c-1.15,5.61 0.41,11.15 3.77,15.27h-0.22c-3.33,-4.15 -4.87,-9.69 -3.72,-15.3c1,-4.84 3.81,-9 7.94,-11.72c4.12,-2.72 9.06,-3.67 13.9,-2.68z" fill="#c75eeb"/><path d="M110.22001,284.18999l-11.52,-10.24v-0.05l3.09,-15.05l14.63,-4.86l11.52,10.24v0.05l-3.09,15.05zM98.90001,273.9l11.36,10.09l14.42,-4.8l3.06,-14.89l-11.36,-10.09l-14.42,4.8z" fill="#61e061"/><path d="M114.56001,292.04999l0.14,-0.05l35.7,-11.87l-0.03,0.15l-7.57,36.86l-28.25,-25.08zM150.16,280.4l-35.27,11.73l27.8,24.68l7.48,-36.41z" fill="#4ebfe9"/><path d="M190.84001,320.09001l19.95,17.72l-17.72,19.95l-19.95,-17.72zM190.86001,320.31998l-17.49,19.69l19.69,17.49l17.49,-19.69z" fill="#f6543b"/><path d="M156.08001,326.53c-6,-5.33 -6.55,-14.55 -1.22,-20.55c5.33,-6 14.55,-6.55 20.55,-1.22c6,5.33 6.55,14.55 1.22,20.55c-5.33,6 -14.55,6.55 -20.55,1.22zM176.50001,325.19998c5.27,-5.93 4.73,-15.03 -1.2,-20.3c-5.93,-5.27 -15.03,-4.73 -20.3,1.2c-5.27,5.93 -4.73,15.03 1.2,20.3c5.93,5.27 15.03,4.73 20.3,-1.2z" fill="#fac900"/><path d="M226.14001,346.21001l0.09,0.02l-2.89,14.09h-0.18l2.86,-13.95c-4.77,-0.95 -9.63,-0.01 -13.69,2.67c-3.99,2.63 -6.74,6.63 -7.78,11.28h-0.18c1.04,-4.71 3.82,-8.77 7.86,-11.43c4.12,-2.72 9.06,-3.67 13.9,-2.68z" fill="#c75eeb"/><path d="M233.18001,318.37l-14.63,4.86l-11.52,-10.24v-0.05l3.09,-15.05l14.63,-4.86l11.52,10.24v0.05zM233.02001,318.22001l3.06,-14.89l-11.36,-10.09l-14.42,4.8l-3.06,14.89l11.36,10.09z" fill="#61e061"/><path d="M222.89001,331.08001l0.14,-0.05l35.7,-11.87l-0.03,0.15l-7.57,36.86l-28.25,-25.08zM258.49001,319.42999l-35.27,11.73l27.8,24.68l7.48,-36.41z" fill="#4ebfe9"/><path d="M299.17,359.12001l1.35,1.19h-0.26l-1.08,-0.95l-0.84,0.95h-0.24z" fill="#f6543b"/><path d="M287.47999,360.31001h-0.19c2.35,-5.53 1.07,-12.18 -3.67,-16.39c-5.93,-5.27 -15.03,-4.73 -20.3,1.2c-3.81,4.29 -4.57,10.23 -2.46,15.19h-0.19c-2.09,-5 -1.32,-10.98 2.52,-15.3c5.33,-6 14.55,-6.55 20.55,-1.22c4.77,4.24 6.08,10.94 3.74,16.52z" fill="#fac900"/><path d="M301.90001,308.63l11.52,10.24v0.05l-3.09,15.05l-14.63,4.86l-11.52,-10.24v-0.05l3.09,-15.05zM313.22,318.92999l-11.36,-10.09l-14.42,4.8l-3.06,14.89l11.36,10.09l14.42,-4.8z" fill="#61e061"/><path d="M335.84001,334.91998l-5.22,25.39h-0.17l5.19,-25.28l-35.28,11.73l15.27,13.55h-0.27l-15.34,-13.62l0.15,-0.04l35.7,-11.88z" fill="#4ebfe9"/><path d="M170.57001,280.61l-19.95,-17.72l17.72,-19.95l19.95,17.72zM170.56001,280.37l17.49,-19.69l-19.69,-17.49l-17.49,19.69z" fill="#f6543b"/><path d="M360.89001,359.39c0.33,0.29 0.64,0.6 0.94,0.92h-0.25c-0.26,-0.27 -0.53,-0.54 -0.81,-0.79c-5.79,-5.14 -14.58,-4.74 -19.9,0.79h-0.24c5.37,-5.71 14.36,-6.16 20.26,-0.92z" fill="#fac900"/><path d="M128.33001,225.26001c5.33,-6 14.55,-6.55 20.55,-1.22c6,5.33 6.55,14.55 1.22,20.55c-5.33,6 -14.55,6.55 -20.55,1.22c-6,-5.33 -6.55,-14.55 -1.22,-20.55zM129.66,245.67001c5.93,5.27 15.03,4.73 20.3,-1.2c5.27,-5.93 4.73,-15.03 -1.2,-20.3c-5.93,-5.27 -15.03,-4.73 -20.3,1.2c-5.27,5.93 -4.73,15.03 1.2,20.3z" fill="#fac900"/><path d="M203.63001,269.06998l0.09,0.02l-7.44,36.24l-0.09,-0.02c-3.29,-0.67 -6.2,-2.19 -8.54,-4.27c-4.78,-4.25 -7.24,-10.86 -5.86,-17.57c1,-4.84 3.81,-9 7.94,-11.72c4.12,-2.72 9.06,-3.67 13.9,-2.68zM203.51001,269.22997c-4.77,-0.95 -9.63,-0.01 -13.69,2.67c-4.08,2.69 -6.88,6.82 -7.86,11.61c-1.36,6.65 1.07,13.2 5.81,17.41c2.3,2.04 5.15,3.53 8.37,4.21z" fill="#c75eeb"/><path d="M171.07001,192.46001l11.52,10.24v0.05l-3.09,15.05l-14.63,4.86l-11.52,-10.24v-0.05l3.09,-15.05zM182.39001,202.76001l-11.36,-10.09l-14.42,4.8l-3.06,14.89l11.36,10.09l14.42,-4.8z" fill="#61e061"/><path d="M205.05001,218.59001l-0.03,0.15l-7.57,36.86l-28.25,-25.08l0.14,-0.05l35.7,-11.87zM197.32001,255.27l7.48,-36.41l-35.27,11.73l27.8,24.68z" fill="#4ebfe9"/><path d="M245.49001,258.54999l19.95,17.72l-17.72,19.95l-19.95,-17.72zM245.50001,258.78998l-17.49,19.69l19.69,17.49l17.49,-19.69z" fill="#f6543b"/><path d="M209.51001,244.44001c5.33,-6 14.55,-6.55 20.55,-1.22c6,5.33 6.55,14.55 1.22,20.55c-5.33,6 -14.55,6.55 -20.55,1.22c-6,-5.33 -6.55,-14.55 -1.22,-20.55zM210.84001,264.86c5.93,5.27 15.03,4.73 20.3,-1.2c5.27,-5.93 4.73,-15.03 -1.2,-20.3c-5.93,-5.27 -15.03,-4.73 -20.3,1.2c-5.27,5.93 -4.73,15.03 1.2,20.3z" fill="#fac900"/><path d="M280.77001,284.66998l0.09,0.02l-7.44,36.24l-0.09,-0.02c-3.29,-0.67 -6.2,-2.19 -8.54,-4.27c-4.78,-4.25 -7.24,-10.86 -5.86,-17.57c1,-4.84 3.81,-9 7.94,-11.72c4.12,-2.72 9.06,-3.67 13.9,-2.68zM280.65001,284.83001c-4.77,-0.95 -9.63,-0.01 -13.69,2.67c-4.08,2.69 -6.88,6.82 -7.86,11.61c-1.36,6.65 1.07,13.2 5.81,17.41c2.3,2.04 5.15,3.53 8.37,4.21z" fill="#c75eeb"/><path d="M7.79001,317.97001c-2.75,-0.55 -5.52,-0.45 -8.16,0.23v-0.18c2.68,-0.68 5.49,-0.77 8.28,-0.2l0.09,0.02l-3.63,17.67l-0.15,-0.13l3.57,-17.4z" fill="#c75eeb"/><path d="M1.72001,304.36l-2.09,-1.85v-0.23l1.98,1.75l7.48,-36.41l-9.46,3.15v-0.19l9.69,-3.22l-0.03,0.15z" fill="#4ebfe9"/><path d="M13.79001,293.19998c5.33,-6 14.55,-6.55 20.55,-1.22c6,5.33 6.55,14.55 1.22,20.55c-5.33,6 -14.55,6.55 -20.55,1.22c-6,-5.33 -6.55,-14.55 -1.22,-20.55zM15.12001,313.62c5.93,5.27 15.03,4.73 20.3,-1.2c5.27,-5.93 4.73,-15.03 -1.2,-20.3c-5.93,-5.27 -15.03,-4.73 -20.3,1.2c-5.27,5.93 -4.73,15.03 1.2,20.3z" fill="#fac900"/><path d="M37.73001,352.5c0.86,2.46 1.06,5.16 0.48,7.83l-0.17,-0.06c0.57,-2.63 0.37,-5.28 -0.47,-7.7c-1.4,-4.06 -4.58,-7.45 -8.95,-8.94c-6.98,-2.37 -14.54,0.95 -17.62,7.45l-0.17,-0.06c3.12,-6.6 10.77,-9.96 17.84,-7.56c4.42,1.5 7.63,4.94 9.05,9.04z" fill="#fac900"/><path d="M60.58001,316.9l11.52,10.24v0.05l-3.09,15.05l-14.63,4.86l-11.52,-10.24v-0.05l3.09,-15.05zM71.89999,327.18999l-11.36,-10.09l-14.42,4.8l-3.06,14.89l11.36,10.09l14.42,-4.8z" fill="#61e061"/><path d="M94.52001,343.18001l-3.52,17.13h-0.18l3.5,-17.01l-35.28,11.73l5.96,5.28h-0.27l-6.03,-5.35l0.15,-0.05l35.7,-11.87z" fill="#4ebfe9"/></g><path d="M15.95001,-0.76999h447.66c9.44,0 17.1,7.66 17.1,17.1v42.66h-481.86v-42.66c0,-9.44 7.66,-17.1 17.1,-17.1z" fill="#ffffff"/><path d="M435.03001,37.42001c-0.17,0 -0.35,-0.02 -0.52,-0.05c-11.68,-2.22 -14.94,-12.82 -15.66,-16.01c-0.25,-1.12 0.2,-2.27 1.15,-2.92l2.08,-1.42c0.65,-0.45 1.48,-0.59 2.24,-0.4c0.77,0.19 1.42,0.71 1.79,1.41l1.48,2.83c0.54,1.04 0.37,2.31 -0.42,3.17l-0.57,0.62c-0.11,0.12 -0.13,0.32 -0.04,0.46c1.64,2.65 3.34,3.96 4.48,4.58c0.16,0.09 0.35,0.06 0.47,-0.07l0.52,-0.55c0.86,-0.92 2.24,-1.15 3.35,-0.55l2.79,1.5c0.74,0.4 1.26,1.11 1.41,1.94c0.16,0.83 -0.06,1.68 -0.61,2.32l-1.81,2.14c-0.53,0.63 -1.3,0.99 -2.13,0.99z" fill="#4ebfe9"/><path d="M403.30001,21.65001v10.7c0,0.64 -0.3,1.22 -0.78,1.52c-0.22,0.14 -0.46,0.21 -0.71,0.21c-0.39,0 -0.75,-0.18 -1.03,-0.49l-3.57,-4.03v0.5c0,3.21 -2.57,5.81 -5.75,5.81h-9.42c-3.17,0 -5.75,-2.6 -5.75,-5.81v-6.14c0,-3.21 2.57,-5.81 5.75,-5.81h9.42c3.17,0 5.75,2.6 5.75,5.81v0.5l3.57,-4.03c0.47,-0.53 1.17,-0.64 1.74,-0.28v0c0.48,0.29 0.78,0.88 0.78,1.52z" fill="#4ebfe9"/><path d="M457.41001,35.14001c0,-1.7894 1.4506,-3.24 3.24,-3.24c1.7894,0 3.24,1.4506 3.24,3.24c0,1.7894 -1.4506,3.24 -3.24,3.24c-1.7894,0 -3.24,-1.4506 -3.24,-3.24z" fill="#4ebfe9"/><path d="M457.41001,26.69001c0,-1.7894 1.4506,-3.24 3.24,-3.24c1.7894,0 3.24,1.4506 3.24,3.24c0,1.7894 -1.4506,3.24 -3.24,3.24c-1.7894,0 -3.24,-1.4506 -3.24,-3.24z" fill="#4ebfe9"/><path d="M457.41001,18.81999c0,-1.7894 1.4506,-3.24 3.24,-3.24c1.7894,0 3.24,1.4506 3.24,3.24c0,1.7894 -1.4506,3.24 -3.24,3.24c-1.7894,0 -3.24,-1.4506 -3.24,-3.24z" fill="#4ebfe9"/><path d="M16.67001,26.98001c0,-8.69848 7.04704,-15.75 15.74,-15.75c8.69296,0 15.74,7.05152 15.74,15.75c0,8.69848 -7.04704,15.75 -15.74,15.75c-8.69296,0 -15.74,-7.05152 -15.74,-15.75z" fill="#4ebfe9"/><path d="M74.61001,42.34001c-6.62742,0 -12,-5.37258 -12,-12v-6.72c0,-6.62742 5.37258,-12 12,-12h248.49c6.62742,0 12,5.37258 12,12v6.72c0,6.62742 -5.37258,12 -12,12z" fill="#4ebfe9"/><path d="M-1.06999,267.22997h482.22v76.27c0,9.44 -7.66,17.1 -17.1,17.1h-448.02c-9.44,0 -17.1,-7.66 -17.1,-17.1z" fill="#ffffff"/><path d="M43.95001,312.13c0.66,0 1.19,0.53 1.19,1.19c0,0.66 -0.53,1.19 -1.19,1.19h-11.06v11.05c0,0.66 -0.53,1.19 -1.19,1.19c-0.66,0 -1.19,-0.53 -1.19,-1.19v-11.05h-11.06c-0.66,0 -1.19,-0.53 -1.19,-1.19c0,-0.66 0.53,-1.19 1.19,-1.19h11.06v-11.06c0,-0.66 0.53,-1.19 1.19,-1.19c0.66,0 1.19,0.53 1.19,1.19v11.06" fill="#007aff"/><path d="M447.96001,319.58001c-2.95,0 -5.35,-2.4 -5.35,-5.35v-10.7c0,-2.95 2.4,-5.35 5.35,-5.35c2.95,0 5.35,2.4 5.35,5.35v10.7c0,2.95 -2.4,5.35 -5.35,5.35z" fill="#4ebfe9"/><path d="M449.03001,323.75v3.63c0,0.59 -0.48,1.07 -1.07,1.07c-0.59,0 -1.07,-0.48 -1.07,-1.07v-3.63c-4.79,-0.54 -8.55,-4.57 -8.55,-9.52c0,-0.59 0.48,-1.07 1.07,-1.07c0.59,0 1.07,0.48 1.07,1.07c0,4.13 3.36,7.49 7.48,7.49c4.12,0 7.48,-3.36 7.48,-7.49c0,-0.59 0.48,-1.07 1.07,-1.07c0.59,0 1.07,0.48 1.07,1.07c0,4.94 -3.75,8.98 -8.55,9.52z" fill="#4ebfe9"/><g fill="#444444"><path d="M50.07574,222.72c-4.7321,0 -8.56824,-1.89384 -8.56824,-4.23v-76.98c0,-2.33616 3.83614,-4.23 8.56824,-4.23h366.00362c4.7321,0 8.56824,1.89384 8.56824,4.23v76.98c0,2.33616 -3.83614,4.23 -8.56824,4.23z"/><path d="M435.58578,211.82l-10.93818,4.93l-18.55439,-8.36l17.9062,-8.07l11.60662,5.23c3.84862,1.73 3.84862,4.54 0,6.27z"/></g><text transform="translate(58.39748,172.11497) scale(0.38778,0.61918)" font-size="40" xml:space="preserve" fill="#ffffff" fill-rule="nonzero" stroke="none" stroke-width="1" stroke-linecap="butt" stroke-linejoin="miter" stroke-miterlimit="10" stroke-dasharray="" stroke-dashoffset="0" font-family="Serif" font-weight="normal" text-anchor="start" style="mix-blend-mode: normal"><tspan x="0" dy="0">O diretor ficou sabendo e conversou com a turma.</tspan><tspan x="0" dy="46.150000000000006px">Eloy ficou muito aliviado e não faltou mais na escola.</tspan></text></g></g></svg>